<?xml version="1.0" encoding="UTF-8"?>
<svg width="312px" height="60px" viewBox="0 0 312 60" version="1.1" xmlns="http://www.w3.org/2000/svg" xmlns:xlink="http://www.w3.org/1999/xlink">
    <!-- Generator: Sketch 52.5 (67469) - http://www.bohemiancoding.com/sketch -->
    <title>know-your-users</title>
    <desc>Created with Sketch.</desc>
    <g id="know-your-users" stroke="none" stroke-width="1" fill="none" fill-rule="evenodd">
        <g id="Group-3">
            <g id="Group">
                <path d="M24.728,3.721 C27.082,1.42 30.91,1.42 33.261,3.721 L54.695,24.674 L32.712,39.966 C30.332,38.857 27.56,38.835 25.159,39.884 L3.293,24.673 L24.728,3.721 Z" id="Path" fill="#FFFFFF"></path>
                <g id="brain-(2)" transform="translate(28.500000, 30.003125) rotate(180.000000) translate(-28.500000, -30.003125) translate(13.000000, 13.003125)" fill-rule="nonzero">
                    <path d="M15.528675,1.93798438 C15.528675,1.93798438 18.2327469,-0.7660875 21.4776719,2.4788375 C21.4776719,2.4788375 23.6407938,1.93798438 24.7225969,4.64195938 C24.7225969,4.64195938 29.590275,4.64195938 29.049325,12.2137094 C29.049325,12.2137094 32.29425,17.0813875 27.4266688,20.3263125 C27.4266688,20.3263125 28.5084719,24.6530406 24.7225969,26.2753094 C24.7225969,26.2753094 25.8044,29.5202344 22.559475,30.0611844 C22.559475,30.0611844 18.7736,36.5511313 15.528675,30.6020375 L15.5063938,30.6020375 C12.2614688,36.5510344 8.47559375,30.0611844 8.47559375,30.0611844 C5.23066875,29.5203313 6.31247187,26.2753094 6.31247187,26.2753094 C2.52659687,24.6526531 3.6084,20.3263125 3.6084,20.3263125 C-1.25927813,17.0813875 1.98574375,12.2137094 1.98574375,12.2137094 C1.44489062,4.64195938 6.31247187,4.64195938 6.31247187,4.64195938 C7.394275,1.9378875 9.55739687,2.4788375 9.55739687,2.4788375 C12.8023219,-0.7660875 15.5063938,1.93798438 15.5063938,1.93798438 L15.528675,1.93798438 Z" id="Shape" fill="#F97DA3"></path>
                    <path d="M12.42015,33.9681531 C10.230775,33.9681531 8.53594688,31.7242375 7.94471875,30.8251406 C6.95175,30.5820812 6.2197625,30.0781375 5.76551563,29.3235781 C5.22408125,28.4241906 5.23609375,27.4132031 5.33422813,26.7422469 C2.75405938,25.2616094 2.42003438,22.4504906 2.6663875,20.7046094 C-1.01883437,17.8972687 -0.059965625,13.9544562 1.11493438,11.9920594 C0.9517,9.06643437 1.55125938,6.85041875 2.89946875,5.40242812 C3.89534375,4.333025 5.05290313,3.97139062 5.73248125,3.84932812 C6.68640938,1.95542187 8.23999375,1.5271375 9.2647375,1.57731875 C11.1064281,-0.089609375 12.8185969,-0.12264375 13.9564906,0.161975 C14.6162094,0.326953125 15.1471812,0.6118625 15.5179219,0.860346875 C15.8887594,0.6118625 16.4194406,0.326953125 17.0792563,0.161975 C18.2167625,-0.122740625 19.9296094,-0.0895125 21.7713969,1.57731875 C22.7914906,1.52781562 24.3499188,1.95542187 25.3036531,3.84932812 C25.9830375,3.97139062 27.1405,4.333025 28.136375,5.40242812 C29.4859406,6.85196875 30.0858875,9.07108437 29.9206187,12.0018437 C30.1949687,12.4849594 30.7424094,13.5871062 30.9123281,14.9471344 C31.1151844,16.568725 30.8175844,18.8417031 28.3693594,20.7045125 C28.6157125,22.4507812 28.2815906,25.2618031 25.7015188,26.74215 C25.7996531,27.4132031 25.8112781,28.4244812 25.2702313,29.3234812 C24.8158875,30.0779437 24.0839,30.5819844 23.0905438,30.8250437 C22.4993156,31.7240437 20.8043906,33.9680562 18.6155,33.9680562 C18.6000969,33.9680562 18.5849844,33.9680562 18.5695813,33.9676687 C17.4371125,33.9513937 16.4145,33.3470875 15.5180188,32.1675375 C14.6216344,33.3471844 13.598925,33.9513937 12.4667469,33.9676687 C12.4509563,33.9681531 12.4353594,33.9681531 12.42015,33.9681531 Z M9.09104062,3.28474063 C8.63291875,3.28474063 7.69739687,3.4824625 7.10655625,4.95951563 C6.97664688,5.28414375 6.66219063,5.49717188 6.31256875,5.49717188 C6.27110625,5.49804375 5.09533438,5.53330625 4.12658438,6.59428125 C3.10435938,7.71425313 2.65883125,9.63625313 2.838825,12.1526781 C2.85219375,12.3417781 2.80249688,12.5302 2.69729063,12.6880094 C2.41770938,13.1130969 0.069265625,16.9387875 4.0827,19.6145719 C4.38330313,19.8150063 4.52580625,20.1829375 4.4380375,20.533625 C4.402775,20.6789375 3.59241563,24.1790313 6.64940313,25.4893625 C7.05821563,25.6643188 7.2644625,26.1237 7.1238,26.5457844 C7.02401875,26.8555906 6.84635,27.8105844 7.23404375,28.4473438 C7.48039688,28.8515063 7.93241563,29.1036719 8.61625625,29.2176938 C8.86696875,29.2594469 9.08600312,29.4105719 9.21416875,29.6302844 C9.64468125,30.3635313 11.0566344,32.2576313 12.4204406,32.2576313 C12.4281906,32.2576313 12.4358438,32.2576313 12.4436906,32.2572438 C13.2372906,32.2447469 14.0150031,31.5503469 14.7555156,30.19245 C14.9054781,29.9177125 15.1932938,29.7469219 15.5062969,29.7469219 C15.8191063,29.7469219 16.1296875,29.9176156 16.27965,30.19245 C17.0199688,31.5503469 17.797875,32.2447469 18.5912813,32.2572438 C18.599225,32.2576313 18.6066844,32.2576313 18.614725,32.2576313 C19.9785313,32.2576313 21.3901938,30.3635313 21.8211906,29.6294125 C21.9498406,29.4106688 22.1689719,29.2594469 22.4187156,29.2175969 C23.1056563,29.1031875 23.5591281,28.8488906 23.8046094,28.4413375 C24.2597281,27.6851313 23.9152406,26.5565375 23.9114625,26.5455906 C23.7708,26.1234094 23.9770469,25.6640281 24.3858594,25.4890719 C27.4424594,24.1791281 26.6323906,20.6786469 26.5959656,20.5304281 C26.5115875,20.1813875 26.6531219,19.8134563 26.952175,19.6143781 C28.6791656,18.4631156 29.4404094,16.9640719 29.2149813,15.1589031 C29.0421563,13.7753344 28.3452375,12.6981813 28.3380688,12.6878156 C28.2328625,12.5300063 28.1831656,12.3415844 28.1965344,12.1524844 C28.3777875,9.61561875 27.9238313,7.68431875 26.8840719,6.56754375 C25.91445,5.5261375 24.7344156,5.49688125 24.7227906,5.49688125 C24.3733625,5.49688125 24.0589063,5.28395 23.9289969,4.95941875 C23.1643625,3.04865625 21.824,3.27892813 21.672875,3.31109063 C21.3881594,3.37309063 21.0787406,3.2887125 20.8731719,3.0833375 C18.3365,0.54579375 16.3476563,2.33420313 16.1292031,2.54674688 C15.9697469,2.70165 15.7512938,2.79290625 15.5287719,2.79290625 L15.5062,2.79290625 C15.2794156,2.79290625 15.0618344,2.70271563 14.9015063,2.54229063 C14.6868313,2.33459063 12.6974063,0.54695625 10.1618969,3.08304688 C9.94954688,3.29539688 9.6413875,3.38084063 9.34989063,3.3080875 C9.31879375,3.3018875 9.22550312,3.28474063 9.09104062,3.28474063 Z" id="Shape" fill="#212121"></path>
                    <path d="M9.55739688,8.42793125 C9.55739688,8.42793125 9.55739688,5.72385937 6.31247188,4.64205625" id="Shape" fill="#212121"></path>
                    <path d="M5.96265625,22.1371969 C5.04001875,22.1371969 4.07775937,21.7588031 3.09002187,21.0064719 C2.7144375,20.7200125 2.641975,20.1834219 2.92824062,19.8080313 C3.21440937,19.4321563 3.751,19.3604688 4.126875,19.6460563 C4.99768437,20.3095531 5.7679375,20.5513531 6.41951875,20.3613813 C7.5891875,20.0214469 8.20831562,18.4234938 8.21441875,18.4076063 C8.37794375,17.9645 8.87074687,17.7373281 9.3127875,17.9015313 C9.75589375,18.06525 9.9823875,18.5566969 9.81866875,18.9997063 C9.78234062,19.0982281 8.90445937,21.4203219 6.89701562,22.0036063 C6.59069687,22.0930219 6.27895312,22.1371969 5.96265625,22.1371969 Z" id="Shape" fill="#212121"></path>
                    <path d="M10.09825,28.4385281 C10.09825,28.4385281 9.55739687,26.2754062 11.7209063,24.1118" id="Shape" fill="#212121"></path>
                    <path d="M10.0939875,29.2888969 C9.71171875,29.2888969 9.36558437,29.0333406 9.26870937,28.646325 C9.24206875,28.5386 8.63882812,25.9847813 11.1165031,23.5073969 C11.4505281,23.1733719 11.9921562,23.1733719 12.3256969,23.5073969 C12.6597219,23.8414219 12.6597219,24.3826625 12.3256969,24.7165906 C10.5608281,26.4812656 10.9145187,28.1702813 10.9304062,28.2411938 C11.0327062,28.6980563 10.750025,29.1572438 10.2944219,29.26555 C10.2271906,29.2813406 10.1601531,29.2888969 10.0939875,29.2888969 Z" id="Shape" fill="#212121"></path>
                    <path d="M7.70301563,15.4938 C5.27862188,15.4938 3.56751875,13.3968438 3.48120313,13.2890219 C3.18592813,12.9201219 3.24599063,12.3820781 3.6146,12.0869969 C3.98243438,11.7919156 4.51921875,11.8513 4.815075,12.2185531 C4.89209063,12.3132969 6.63022188,14.4099625 8.69889063,13.583425 C9.83872188,13.1274344 10.5514313,12.5694344 11.1240594,12.1209031 C11.8445188,11.5569938 12.6617563,10.9182969 13.7256375,11.4492688 C14.1480125,11.6605531 14.3191906,12.1741844 14.1081,12.5967531 C13.8964281,13.0191281 13.3827969,13.1901125 12.9606156,12.9792156 C12.9307781,12.9642 12.9170219,12.9614875 12.9170219,12.9614875 C12.8051313,12.9768906 12.4428188,13.2605406 12.1786406,13.4675625 C11.5548625,13.9559094 10.7006188,14.6248313 9.33400313,15.1714969 C8.7640875,15.3993469 8.21742188,15.4938 7.70301563,15.4938 Z" id="Shape" fill="#212121"></path>
                    <path d="M25.0501313,22.1371969 C24.734125,22.1371969 24.422575,22.092925 24.1160625,22.0035094 C22.108425,21.4201281 21.2306406,19.0981312 21.1944094,18.9996094 C21.0306906,18.5565031 21.257475,18.0651531 21.7004844,17.9014344 C22.1402,17.7364562 22.6336813,17.9627562 22.7977875,18.405475 C22.9680938,18.8555562 23.6224844,20.0827687 24.5991781,20.3630281 C25.2485313,20.5484469 26.0172344,20.3082937 26.8862031,19.6460562 C27.2620781,19.3595969 27.7986688,19.4326406 28.0846438,19.8080312 C28.3706188,20.1834219 28.2984469,20.7200125 27.9226688,21.0064719 C26.9350281,21.7589 25.972575,22.1371969 25.0501313,22.1371969 Z" id="Shape" fill="#212121"></path>
                    <path d="M20.1473844,26.0488156 C20.1473844,26.0488156 20.6882375,23.8856938 18.5247281,21.7220875" id="Shape" fill="#212121"></path>
                    <path d="M20.1483531,26.904125 C20.079475,26.904125 20.009725,26.8961813 19.939975,26.8787438 C19.4848562,26.7647219 19.2067281,26.3053406 19.3157125,25.8503188 C19.3353781,25.7601281 19.6744406,24.0810906 17.9202281,22.326975 C17.5862031,21.99295 17.5862031,21.4517094 17.9202281,21.1177813 C18.2542531,20.7837563 18.7954937,20.7837563 19.1294219,21.1177813 C21.6068062,23.5951656 21.0038562,26.1489844 20.9772156,26.2567094 C20.8799531,26.6447906 20.5312031,26.904125 20.1483531,26.904125 Z" id="Shape" fill="#212121"></path>
                    <path d="M24.6229125,16.3926062 C23.3969594,16.3926062 21.9037281,16.0345562 20.8289,14.6043906 C19.9445281,13.4275531 19.5615813,12.4123031 19.2822906,11.6709187 C19.164975,11.359175 19.0041625,10.9333125 18.9081594,10.8525187 L18.9077719,10.8527125 C18.9043813,10.8527125 18.8911094,10.8495156 18.8676656,10.847675 C18.3970469,10.8090219 18.0467469,10.3960437 18.0854969,9.92523125 C18.1243438,9.4546125 18.5351906,9.10092187 19.0079406,9.1430625 C20.1938844,9.24051875 20.5595875,10.2112062 20.8827625,11.0673875 C21.1390938,11.7480312 21.4585875,12.5953 22.196,13.5765469 C23.53675,15.3604031 26.1148844,14.4650844 26.2242563,14.4264312 C26.6686219,14.2684281 27.1579375,14.4976344 27.3177813,14.9406437 C27.4777219,15.38375 27.25055,15.8721937 26.8083156,16.0337812 C26.7313,16.0622625 25.800525,16.3926062 24.6229125,16.3926062 Z" id="Shape" fill="#212121"></path>
                    <path d="M15.5062969,31.45725 C15.0340313,31.45725 14.6511813,31.0744 14.6511813,30.6021344 L14.6511813,1.93808125 C14.6511813,1.46581562 15.0340313,1.08296562 15.5062969,1.08296562 C15.9785625,1.08296562 16.3614125,1.46581562 16.3614125,1.93808125 L16.3614125,30.6020375 C16.3615094,31.0744 15.9785625,31.45725 15.5062969,31.45725 Z" id="Shape" fill="#212121"></path>
                    <path d="M10.6383281,21.7226687 C10.4752875,21.7226687 10.3105031,21.6763625 10.1648031,21.5790031 C7.101325,19.5366844 7.927475,15.7251375 8.79247187,13.9950469 C9.00395,13.5726719 9.5181625,13.4013 9.93995625,13.6125844 C10.3619437,13.823675 10.533025,14.3362406 10.323,14.758325 C10.2468563,14.9127437 8.54505312,18.4435469 11.1134031,20.1559094 C11.5063281,20.4177625 11.6126,20.9488312 11.3505531,21.3418531 C11.1859625,21.5889812 10.9148094,21.7226687 10.6383281,21.7226687 Z" id="Shape" fill="#212121"></path>
                </g>
                <g id="brain-(2)" transform="translate(28.500000, 30.003125) rotate(180.000000) translate(-28.500000, -30.003125) translate(13.000000, 13.003125)" fill-rule="nonzero">
                    <path d="M15.528675,1.93798438 C15.528675,1.93798438 18.2327469,-0.7660875 21.4776719,2.4788375 C21.4776719,2.4788375 23.6407938,1.93798438 24.7225969,4.64195938 C24.7225969,4.64195938 29.590275,4.64195938 29.049325,12.2137094 C29.049325,12.2137094 32.29425,17.0813875 27.4266688,20.3263125 C27.4266688,20.3263125 28.5084719,24.6530406 24.7225969,26.2753094 C24.7225969,26.2753094 25.8044,29.5202344 22.559475,30.0611844 C22.559475,30.0611844 18.7736,36.5511313 15.528675,30.6020375 L15.5063938,30.6020375 C12.2614688,36.5510344 8.47559375,30.0611844 8.47559375,30.0611844 C5.23066875,29.5203313 6.31247187,26.2753094 6.31247187,26.2753094 C2.52659687,24.6526531 3.6084,20.3263125 3.6084,20.3263125 C-1.25927813,17.0813875 1.98574375,12.2137094 1.98574375,12.2137094 C1.44489062,4.64195938 6.31247187,4.64195938 6.31247187,4.64195938 C7.394275,1.9378875 9.55739687,2.4788375 9.55739687,2.4788375 C12.8023219,-0.7660875 15.5063938,1.93798438 15.5063938,1.93798438 L15.528675,1.93798438 Z" id="Shape" fill="#F97DA3"></path>
                    <path d="M12.42015,33.9681531 C10.230775,33.9681531 8.53594688,31.7242375 7.94471875,30.8251406 C6.95175,30.5820812 6.2197625,30.0781375 5.76551563,29.3235781 C5.22408125,28.4241906 5.23609375,27.4132031 5.33422813,26.7422469 C2.75405938,25.2616094 2.42003438,22.4504906 2.6663875,20.7046094 C-1.01883437,17.8972687 -0.059965625,13.9544562 1.11493438,11.9920594 C0.9517,9.06643437 1.55125938,6.85041875 2.89946875,5.40242812 C3.89534375,4.333025 5.05290313,3.97139062 5.73248125,3.84932812 C6.68640938,1.95542187 8.23999375,1.5271375 9.2647375,1.57731875 C11.1064281,-0.089609375 12.8185969,-0.12264375 13.9564906,0.161975 C14.6162094,0.326953125 15.1471812,0.6118625 15.5179219,0.860346875 C15.8887594,0.6118625 16.4194406,0.326953125 17.0792563,0.161975 C18.2167625,-0.122740625 19.9296094,-0.0895125 21.7713969,1.57731875 C22.7914906,1.52781562 24.3499188,1.95542187 25.3036531,3.84932812 C25.9830375,3.97139062 27.1405,4.333025 28.136375,5.40242812 C29.4859406,6.85196875 30.0858875,9.07108437 29.9206187,12.0018437 C30.1949687,12.4849594 30.7424094,13.5871062 30.9123281,14.9471344 C31.1151844,16.568725 30.8175844,18.8417031 28.3693594,20.7045125 C28.6157125,22.4507812 28.2815906,25.2618031 25.7015188,26.74215 C25.7996531,27.4132031 25.8112781,28.4244812 25.2702313,29.3234812 C24.8158875,30.0779437 24.0839,30.5819844 23.0905438,30.8250437 C22.4993156,31.7240437 20.8043906,33.9680562 18.6155,33.9680562 C18.6000969,33.9680562 18.5849844,33.9680562 18.5695813,33.9676687 C17.4371125,33.9513937 16.4145,33.3470875 15.5180188,32.1675375 C14.6216344,33.3471844 13.598925,33.9513937 12.4667469,33.9676687 C12.4509563,33.9681531 12.4353594,33.9681531 12.42015,33.9681531 Z M9.09104062,3.28474063 C8.63291875,3.28474063 7.69739687,3.4824625 7.10655625,4.95951563 C6.97664688,5.28414375 6.66219063,5.49717188 6.31256875,5.49717188 C6.27110625,5.49804375 5.09533438,5.53330625 4.12658438,6.59428125 C3.10435938,7.71425313 2.65883125,9.63625313 2.838825,12.1526781 C2.85219375,12.3417781 2.80249688,12.5302 2.69729063,12.6880094 C2.41770938,13.1130969 0.069265625,16.9387875 4.0827,19.6145719 C4.38330313,19.8150063 4.52580625,20.1829375 4.4380375,20.533625 C4.402775,20.6789375 3.59241563,24.1790313 6.64940313,25.4893625 C7.05821563,25.6643188 7.2644625,26.1237 7.1238,26.5457844 C7.02401875,26.8555906 6.84635,27.8105844 7.23404375,28.4473438 C7.48039688,28.8515063 7.93241563,29.1036719 8.61625625,29.2176938 C8.86696875,29.2594469 9.08600312,29.4105719 9.21416875,29.6302844 C9.64468125,30.3635313 11.0566344,32.2576313 12.4204406,32.2576313 C12.4281906,32.2576313 12.4358438,32.2576313 12.4436906,32.2572438 C13.2372906,32.2447469 14.0150031,31.5503469 14.7555156,30.19245 C14.9054781,29.9177125 15.1932938,29.7469219 15.5062969,29.7469219 C15.8191063,29.7469219 16.1296875,29.9176156 16.27965,30.19245 C17.0199688,31.5503469 17.797875,32.2447469 18.5912813,32.2572438 C18.599225,32.2576313 18.6066844,32.2576313 18.614725,32.2576313 C19.9785313,32.2576313 21.3901938,30.3635313 21.8211906,29.6294125 C21.9498406,29.4106688 22.1689719,29.2594469 22.4187156,29.2175969 C23.1056563,29.1031875 23.5591281,28.8488906 23.8046094,28.4413375 C24.2597281,27.6851313 23.9152406,26.5565375 23.9114625,26.5455906 C23.7708,26.1234094 23.9770469,25.6640281 24.3858594,25.4890719 C27.4424594,24.1791281 26.6323906,20.6786469 26.5959656,20.5304281 C26.5115875,20.1813875 26.6531219,19.8134563 26.952175,19.6143781 C28.6791656,18.4631156 29.4404094,16.9640719 29.2149813,15.1589031 C29.0421563,13.7753344 28.3452375,12.6981813 28.3380688,12.6878156 C28.2328625,12.5300063 28.1831656,12.3415844 28.1965344,12.1524844 C28.3777875,9.61561875 27.9238313,7.68431875 26.8840719,6.56754375 C25.91445,5.5261375 24.7344156,5.49688125 24.7227906,5.49688125 C24.3733625,5.49688125 24.0589063,5.28395 23.9289969,4.95941875 C23.1643625,3.04865625 21.824,3.27892813 21.672875,3.31109063 C21.3881594,3.37309063 21.0787406,3.2887125 20.8731719,3.0833375 C18.3365,0.54579375 16.3476563,2.33420313 16.1292031,2.54674688 C15.9697469,2.70165 15.7512938,2.79290625 15.5287719,2.79290625 L15.5062,2.79290625 C15.2794156,2.79290625 15.0618344,2.70271563 14.9015063,2.54229063 C14.6868313,2.33459063 12.6974063,0.54695625 10.1618969,3.08304688 C9.94954688,3.29539688 9.6413875,3.38084063 9.34989063,3.3080875 C9.31879375,3.3018875 9.22550312,3.28474063 9.09104062,3.28474063 Z" id="Shape" fill="#212121"></path>
                    <path d="M9.55739688,8.42793125 C9.55739688,8.42793125 9.55739688,5.72385937 6.31247188,4.64205625" id="Shape" fill="#212121"></path>
                    <path d="M5.96265625,22.1371969 C5.04001875,22.1371969 4.07775937,21.7588031 3.09002187,21.0064719 C2.7144375,20.7200125 2.641975,20.1834219 2.92824062,19.8080313 C3.21440937,19.4321563 3.751,19.3604688 4.126875,19.6460563 C4.99768437,20.3095531 5.7679375,20.5513531 6.41951875,20.3613813 C7.5891875,20.0214469 8.20831562,18.4234938 8.21441875,18.4076063 C8.37794375,17.9645 8.87074687,17.7373281 9.3127875,17.9015313 C9.75589375,18.06525 9.9823875,18.5566969 9.81866875,18.9997063 C9.78234062,19.0982281 8.90445937,21.4203219 6.89701562,22.0036063 C6.59069687,22.0930219 6.27895312,22.1371969 5.96265625,22.1371969 Z" id="Shape" fill="#212121"></path>
                    <path d="M10.09825,28.4385281 C10.09825,28.4385281 9.55739687,26.2754062 11.7209063,24.1118" id="Shape" fill="#212121"></path>
                    <path d="M10.0939875,29.2888969 C9.71171875,29.2888969 9.36558437,29.0333406 9.26870937,28.646325 C9.24206875,28.5386 8.63882812,25.9847813 11.1165031,23.5073969 C11.4505281,23.1733719 11.9921562,23.1733719 12.3256969,23.5073969 C12.6597219,23.8414219 12.6597219,24.3826625 12.3256969,24.7165906 C10.5608281,26.4812656 10.9145187,28.1702813 10.9304062,28.2411938 C11.0327062,28.6980563 10.750025,29.1572438 10.2944219,29.26555 C10.2271906,29.2813406 10.1601531,29.2888969 10.0939875,29.2888969 Z" id="Shape" fill="#212121"></path>
                    <path d="M7.70301563,15.4938 C5.27862188,15.4938 3.56751875,13.3968438 3.48120313,13.2890219 C3.18592813,12.9201219 3.24599063,12.3820781 3.6146,12.0869969 C3.98243438,11.7919156 4.51921875,11.8513 4.815075,12.2185531 C4.89209063,12.3132969 6.63022188,14.4099625 8.69889063,13.583425 C9.83872188,13.1274344 10.5514313,12.5694344 11.1240594,12.1209031 C11.8445188,11.5569938 12.6617563,10.9182969 13.7256375,11.4492688 C14.1480125,11.6605531 14.3191906,12.1741844 14.1081,12.5967531 C13.8964281,13.0191281 13.3827969,13.1901125 12.9606156,12.9792156 C12.9307781,12.9642 12.9170219,12.9614875 12.9170219,12.9614875 C12.8051313,12.9768906 12.4428188,13.2605406 12.1786406,13.4675625 C11.5548625,13.9559094 10.7006188,14.6248313 9.33400313,15.1714969 C8.7640875,15.3993469 8.21742188,15.4938 7.70301563,15.4938 Z" id="Shape" fill="#212121"></path>
                    <path d="M25.0501313,22.1371969 C24.734125,22.1371969 24.422575,22.092925 24.1160625,22.0035094 C22.108425,21.4201281 21.2306406,19.0981312 21.1944094,18.9996094 C21.0306906,18.5565031 21.257475,18.0651531 21.7004844,17.9014344 C22.1402,17.7364562 22.6336813,17.9627562 22.7977875,18.405475 C22.9680938,18.8555562 23.6224844,20.0827687 24.5991781,20.3630281 C25.2485313,20.5484469 26.0172344,20.3082937 26.8862031,19.6460562 C27.2620781,19.3595969 27.7986688,19.4326406 28.0846438,19.8080312 C28.3706188,20.1834219 28.2984469,20.7200125 27.9226688,21.0064719 C26.9350281,21.7589 25.972575,22.1371969 25.0501313,22.1371969 Z" id="Shape" fill="#212121"></path>
                    <path d="M20.1473844,26.0488156 C20.1473844,26.0488156 20.6882375,23.8856938 18.5247281,21.7220875" id="Shape" fill="#212121"></path>
                    <path d="M20.1483531,26.904125 C20.079475,26.904125 20.009725,26.8961813 19.939975,26.8787438 C19.4848562,26.7647219 19.2067281,26.3053406 19.3157125,25.8503188 C19.3353781,25.7601281 19.6744406,24.0810906 17.9202281,22.326975 C17.5862031,21.99295 17.5862031,21.4517094 17.9202281,21.1177813 C18.2542531,20.7837563 18.7954937,20.7837563 19.1294219,21.1177813 C21.6068062,23.5951656 21.0038562,26.1489844 20.9772156,26.2567094 C20.8799531,26.6447906 20.5312031,26.904125 20.1483531,26.904125 Z" id="Shape" fill="#212121"></path>
                    <path d="M24.6229125,16.3926062 C23.3969594,16.3926062 21.9037281,16.0345562 20.8289,14.6043906 C19.9445281,13.4275531 19.5615813,12.4123031 19.2822906,11.6709187 C19.164975,11.359175 19.0041625,10.9333125 18.9081594,10.8525187 L18.9077719,10.8527125 C18.9043813,10.8527125 18.8911094,10.8495156 18.8676656,10.847675 C18.3970469,10.8090219 18.0467469,10.3960437 18.0854969,9.92523125 C18.1243438,9.4546125 18.5351906,9.10092187 19.0079406,9.1430625 C20.1938844,9.24051875 20.5595875,10.2112062 20.8827625,11.0673875 C21.1390938,11.7480312 21.4585875,12.5953 22.196,13.5765469 C23.53675,15.3604031 26.1148844,14.4650844 26.2242563,14.4264312 C26.6686219,14.2684281 27.1579375,14.4976344 27.3177813,14.9406437 C27.4777219,15.38375 27.25055,15.8721937 26.8083156,16.0337812 C26.7313,16.0622625 25.800525,16.3926062 24.6229125,16.3926062 Z" id="Shape" fill="#212121"></path>
                    <path d="M15.5062969,31.45725 C15.0340313,31.45725 14.6511813,31.0744 14.6511813,30.6021344 L14.6511813,1.93808125 C14.6511813,1.46581562 15.0340313,1.08296562 15.5062969,1.08296562 C15.9785625,1.08296562 16.3614125,1.46581562 16.3614125,1.93808125 L16.3614125,30.6020375 C16.3615094,31.0744 15.9785625,31.45725 15.5062969,31.45725 Z" id="Shape" fill="#212121"></path>
                    <path d="M10.6383281,21.7226687 C10.4752875,21.7226687 10.3105031,21.6763625 10.1648031,21.5790031 C7.101325,19.5366844 7.927475,15.7251375 8.79247187,13.9950469 C9.00395,13.5726719 9.5181625,13.4013 9.93995625,13.6125844 C10.3619437,13.823675 10.533025,14.3362406 10.323,14.758325 C10.2468563,14.9127437 8.54505312,18.4435469 11.1134031,20.1559094 C11.5063281,20.4177625 11.6126,20.9488312 11.3505531,21.3418531 C11.1859625,21.5889812 10.9148094,21.7226687 10.6383281,21.7226687 Z" id="Shape" fill="#212121"></path>
                </g>
                <path d="M56.97,59.107 C56.962,59.176 56.952,59.242 56.929,59.31 C56.906,59.376 56.874,59.433 56.839,59.492 C56.818,59.528 56.811,59.568 56.785,59.602 C56.773,59.617 56.755,59.622 56.742,59.637 C56.673,59.717 56.591,59.778 56.5,59.833 C56.467,59.852 56.44,59.88 56.406,59.896 C56.28,59.953 56.143,59.989 55.995,59.989 L1.995,59.989 C1.979,59.989 1.966,59.981 1.951,59.98 C1.882,59.976 1.817,59.956 1.75,59.939 C1.69,59.924 1.629,59.915 1.574,59.889 C1.521,59.864 1.477,59.825 1.429,59.791 C1.37,59.75 1.311,59.712 1.262,59.659 C1.253,59.648 1.239,59.644 1.23,59.633 C1.199,59.596 1.189,59.552 1.164,59.513 C1.126,59.453 1.088,59.396 1.063,59.328 C1.038,59.26 1.031,59.192 1.021,59.122 C1.015,59.076 0.994,59.036 0.994,58.988 L0.994,24.545 C0.994,24.275 1.103,24.018 1.295,23.83 L23.329,2.291 C26.452,-0.764 31.534,-0.764 34.659,2.291 L56.693,23.83 C56.886,24.018 56.994,24.275 56.994,24.545 L56.994,58.988 C56.994,59.03 56.975,59.066 56.97,59.107 Z M24.728,3.721 L3.293,24.673 L25.159,39.884 C27.56,38.835 30.332,38.857 32.712,39.966 L54.695,24.674 L33.261,3.721 C30.91,1.42 27.082,1.42 24.728,3.721 Z" id="Combined-Shape" fill="#FFFFFF"></path>
                <g id="envelope-(1)" fill="#212121" fill-rule="nonzero">
                    <path d="M56.97,59.107 C56.975,59.066 56.994,59.03 56.994,58.988 L56.994,24.545 C56.994,24.275 56.886,24.018 56.693,23.83 L34.659,2.291 C31.534,-0.764 26.452,-0.764 23.329,2.291 L1.295,23.83 C1.103,24.018 0.994,24.275 0.994,24.545 L0.994,58.988 C0.994,59.036 1.015,59.076 1.021,59.122 C1.031,59.192 1.038,59.26 1.063,59.328 C1.088,59.396 1.126,59.453 1.164,59.513 C1.189,59.552 1.199,59.596 1.23,59.633 C1.239,59.644 1.253,59.648 1.262,59.659 C1.311,59.712 1.37,59.75 1.429,59.791 C1.477,59.825 1.521,59.864 1.574,59.889 C1.629,59.915 1.69,59.924 1.75,59.939 C1.817,59.956 1.882,59.976 1.951,59.98 C1.966,59.981 1.979,59.989 1.995,59.989 L55.995,59.989 C56.143,59.989 56.28,59.953 56.406,59.896 C56.44,59.88 56.467,59.852 56.5,59.833 C56.591,59.778 56.673,59.717 56.742,59.637 C56.755,59.622 56.773,59.617 56.785,59.602 C56.811,59.568 56.818,59.528 56.839,59.492 C56.874,59.433 56.906,59.376 56.929,59.31 C56.952,59.242 56.962,59.176 56.97,59.107 Z M2.994,26.903 L23.241,40.988 C17.025,45.278 6.927,53.58 2.994,56.85 L2.994,26.903 Z M24.829,42.322 C27.24,40.685 30.473,40.695 32.827,42.312 L53.069,57.988 L4.754,57.988 C9.065,54.412 18.962,46.305 24.829,42.322 Z M34.554,41.122 L54.994,26.903 L54.994,56.949 L34.554,41.122 Z M24.728,3.721 C27.082,1.42 30.91,1.42 33.261,3.721 L54.695,24.674 L32.712,39.966 C30.332,38.857 27.56,38.835 25.159,39.884 L3.293,24.673 L24.728,3.721 Z" id="Shape"></path>
                </g>
            </g>
            <text id="Know-Your-Users" font-family="Foco-Bold, Foco" font-size="32" font-weight="bold" fill="#FFFFFF">
                <tspan x="77" y="41">Know Your Users</tspan>
            </text>
        </g>
    </g>
</svg>