<?xml version="1.0" encoding="UTF-8"?>
<svg width="379px" height="70px" viewBox="0 0 379 70" version="1.1" xmlns="http://www.w3.org/2000/svg" xmlns:xlink="http://www.w3.org/1999/xlink">
    <!-- Generator: Sketch 52.5 (67469) - http://www.bohemiancoding.com/sketch -->
    <title>know-your-users-alt</title>
    <desc>Created with Sketch.</desc>
    <g id="know-your-users-alt" stroke="none" stroke-width="1" fill="none" fill-rule="evenodd">
        <g id="Group" transform="translate(-1.000000, 0.000000)">
            <path d="M28.8493333,4.34116667 C31.5956667,1.65666667 36.0616667,1.65666667 38.8045,4.34116667 L63.8108333,28.7863333 L38.164,46.627 C35.3873333,45.3331667 32.1533333,45.3075 29.3521667,46.5313333 L3.84183333,28.7851667 L28.8493333,4.34116667 Z" id="Path" fill="#FFFFFF"></path>
            <g id="brain-(2)" transform="translate(33.250000, 35.003646) rotate(180.000000) translate(-33.250000, -35.003646) translate(15.166667, 15.170312)" fill-rule="nonzero">
                <path d="M18.1167875,2.26098177 C18.1167875,2.26098177 21.271538,-0.89376875 25.0572839,2.89197708 C25.0572839,2.89197708 27.580926,2.26098177 28.8430297,5.41561927 C28.8430297,5.41561927 34.5219875,5.41561927 33.8908792,14.2493276 C33.8908792,14.2493276 37.676625,19.9282854 31.9977802,23.7140312 C31.9977802,23.7140312 33.2598839,28.7618807 28.8430297,30.6545276 C28.8430297,30.6545276 30.1051333,34.4402734 26.3193875,35.0713818 C26.3193875,35.0713818 21.9025333,42.6429865 18.1167875,35.7023771 L18.0907927,35.7023771 C14.3050469,42.6428734 9.88819271,35.0713818 9.88819271,35.0713818 C6.10244688,34.4403865 7.36455052,30.6545276 7.36455052,30.6545276 C2.94769635,28.7614286 4.2098,23.7140312 4.2098,23.7140312 C-1.46915781,19.9282854 2.31670104,14.2493276 2.31670104,14.2493276 C1.68570573,5.41561927 7.36455052,5.41561927 7.36455052,5.41561927 C8.62665417,2.26086875 11.1502964,2.89197708 11.1502964,2.89197708 C14.9360422,-0.89376875 18.0907927,2.26098177 18.0907927,2.26098177 L18.1167875,2.26098177 Z" id="Shape" fill="#F97DA3"></path>
                <path d="M14.490175,39.629512 C11.9359042,39.629512 9.95860469,37.0116104 9.26883854,35.9626641 C8.110375,35.6790948 7.25638958,35.0911604 6.7264349,34.2108411 C6.09476146,33.1615557 6.10877604,31.9820703 6.22326615,31.199288 C3.21306927,29.4718776 2.82337344,26.1922391 3.11078542,24.1553776 C-1.1886401,20.8801469 -0.0699598958,16.280199 1.30075677,13.9907359 C1.11031667,10.5775068 1.8098026,7.99215521 3.38271354,6.30283281 C4.54456771,5.05519583 5.89505365,4.63328906 6.68789479,4.49088281 C7.80081094,2.28132552 9.61332604,1.78166042 10.8088604,1.84020521 C12.9574995,-0.104544271 14.9550297,-0.143084375 16.2825724,0.188970833 C17.0522443,0.381445312 17.6717115,0.713839583 18.1042422,1.00373802 C18.5368859,0.713839583 19.1560141,0.381445312 19.925799,0.188970833 C21.2528896,-0.143197396 23.2512109,-0.10443125 25.399963,1.84020521 C26.5900724,1.78245156 28.4082385,2.28132552 29.5209286,4.49088281 C30.3135438,4.63328906 31.6639167,5.05519583 32.8257708,6.30283281 C34.4002641,7.99396354 35.1002021,10.5829318 34.9073885,14.002151 C35.2274635,14.5657859 35.8661443,15.851624 36.0643828,17.4383234 C36.3010484,19.3301792 35.9538484,21.981987 33.0975859,24.1552646 C33.3849979,26.1925781 32.9951891,29.4721036 29.9851052,31.199175 C30.0995953,31.9820703 30.1131578,33.1618948 29.4819365,34.2107281 C28.9518688,35.0909344 28.0978833,35.6789818 26.9389677,35.962551 C26.2492016,37.0113844 24.2717891,39.629399 21.7180833,39.629399 C21.700113,39.629399 21.6824818,39.629399 21.6645115,39.6289469 C20.3432979,39.6099594 19.15025,38.9049354 18.1043552,37.5287937 C17.0585734,38.9050484 15.8654125,39.6099594 14.544538,39.6289469 C14.5261156,39.629512 14.5079193,39.629512 14.490175,39.629512 Z M10.6062141,3.8321974 C10.0717385,3.8321974 8.98029635,4.06287292 8.29098229,5.78610156 C8.13942135,6.16483437 7.77255573,6.41336719 7.36466354,6.41336719 C7.31629063,6.41438437 5.94455677,6.45552396 4.81434844,7.69332812 C3.6217526,8.99996198 3.10196979,11.2422953 3.3119625,14.1781245 C3.32755938,14.3987411 3.26957969,14.6185667 3.14683906,14.8026776 C2.82066094,15.298613 0.0808098958,19.7619187 4.76315,22.8836672 C5.11385365,23.1175073 5.28010729,23.5467604 5.17771042,23.9558958 C5.13657083,24.1254271 4.19115156,28.2088698 7.75763698,29.7375896 C8.2345849,29.9417052 8.47520625,30.47765 8.3111,30.9700818 C8.19468854,31.3315224 7.98740833,32.4456818 8.43971771,33.1885677 C8.72712969,33.6600906 9.2544849,33.9542839 10.052299,34.0873094 C10.3447969,34.1360214 10.600337,34.3123339 10.7498635,34.5686651 C11.2521281,35.4241198 12.8994068,37.6339031 14.4905141,37.6339031 C14.4995557,37.6339031 14.5084844,37.6339031 14.5176391,37.633451 C15.4435057,37.6188714 16.350837,36.808738 17.2147682,35.224525 C17.3897245,34.9039979 17.7255094,34.7047422 18.0906797,34.7047422 C18.455624,34.7047422 18.8179688,34.9038849 18.992925,35.224525 C19.8566302,36.808738 20.7641875,37.6188714 21.6898281,37.633451 C21.6990958,37.6339031 21.7077984,37.6339031 21.7171792,37.6339031 C23.3082865,37.6339031 24.955226,35.4241198 25.4580557,34.5676479 C25.6081474,34.3124469 25.8638005,34.1360214 26.1551682,34.0871964 C26.956599,33.9537187 27.4856495,33.6570391 27.7720443,33.1815604 C28.3030161,32.2993198 27.9011141,30.9826271 27.8967063,30.9698557 C27.7326,30.4773109 27.9732214,29.9413661 28.4501693,29.7372505 C32.0162026,28.2089828 31.0711224,24.125088 31.0286266,23.9521661 C30.9301854,23.5449521 31.0953089,23.115699 31.4442042,22.8834411 C33.4590266,21.5403016 34.3471443,19.7914172 34.0841448,17.685387 C33.8825156,16.0712234 33.0694438,14.8145448 33.0610802,14.8024516 C32.9383396,14.6183406 32.8803599,14.3985151 32.8959568,14.1778984 C33.1074188,11.2182219 32.5778031,8.96503854 31.3647505,7.66213438 C30.233525,6.44716042 28.8568182,6.41302813 28.8432557,6.41302813 C28.4355896,6.41302813 28.068724,6.16460833 27.917163,5.78598854 C27.0250896,3.55676563 25.4613333,3.82541615 25.2850208,3.86293906 C24.9528526,3.9352724 24.5918641,3.83683125 24.3520339,3.59722708 C21.3925833,0.636759375 19.0722656,2.72323698 18.8174036,2.97120469 C18.6313714,3.151925 18.3765094,3.25839063 18.1169005,3.25839063 L18.0905667,3.25839063 C17.8259849,3.25839063 17.5721401,3.15316823 17.3850906,2.96600573 C17.1346365,2.72368906 14.8136406,0.638115625 11.8555464,3.59688802 C11.6078047,3.84462969 11.2482854,3.94431406 10.9082057,3.85943542 C10.871926,3.85220208 10.763087,3.8321974 10.6062141,3.8321974 Z" id="Shape" fill="#212121"></path>
                <path d="M11.1502964,9.83258646 C11.1502964,9.83258646 11.1502964,6.67783594 7.36455052,5.41573229" id="Shape" fill="#212121"></path>
                <path d="M6.95643229,25.8267297 C5.88002188,25.8267297 4.75738594,25.3852703 3.60502552,24.5075505 C3.16684375,24.1733479 3.08230417,23.5473255 3.41628073,23.1093698 C3.75014427,22.670849 4.37616667,22.5872135 4.8146875,22.920399 C5.83063177,23.6944786 6.72926042,23.9765786 7.48943854,23.7549448 C8.85405208,23.3583547 9.57636823,21.494076 9.58348854,21.4755406 C9.77426771,20.9585833 10.3492047,20.6935495 10.8649188,20.8851198 C11.381876,21.076125 11.6461188,21.6494797 11.4551135,22.166324 C11.4127307,22.2812661 10.3885359,24.9903755 8.04651823,25.670874 C7.68914635,25.7751922 7.32544531,25.8267297 6.95643229,25.8267297 Z" id="Shape" fill="#212121"></path>
                <path d="M11.7812917,33.1782828 C11.7812917,33.1782828 11.1502964,30.6546406 13.6743906,28.1304333" id="Shape" fill="#212121"></path>
                <path d="M11.7763187,34.1703797 C11.3303385,34.1703797 10.9265151,33.8722307 10.8134943,33.4207125 C10.7824135,33.2950333 10.0786328,30.3155781 12.9692536,27.4252964 C13.3589495,27.0356005 13.990849,27.0356005 14.3799797,27.4252964 C14.7696755,27.8149922 14.7696755,28.4464396 14.3799797,28.8360224 C12.3209661,30.8948099 12.7336052,32.8653281 12.7521406,32.9480594 C12.8714906,33.4810656 12.5416958,34.0167844 12.0101589,34.1431417 C11.9317224,34.1615641 11.853512,34.1703797 11.7763187,34.1703797 Z" id="Shape" fill="#212121"></path>
                <path d="M8.98685156,18.0761 C6.15839219,18.0761 4.16210521,15.629651 4.06140365,15.5038589 C3.71691615,15.0734755 3.78698906,14.4457578 4.21703333,14.1014964 C4.64617344,13.7572349 5.27242188,13.8265167 5.6175875,14.2549786 C5.70743906,14.365513 7.73525885,16.8116229 10.1487057,15.8473292 C11.4785089,15.3153401 12.3100031,14.6643401 12.9780693,14.1410536 C13.8186052,13.4831594 14.772049,12.738013 16.0132438,13.3574802 C16.5060146,13.6039786 16.7057224,14.2032151 16.45945,14.696212 C16.2124995,15.1889828 15.613263,15.3884646 15.1207182,15.1424182 C15.0859078,15.1249 15.0698589,15.1217354 15.0698589,15.1217354 C14.9393198,15.1397057 14.5166219,15.4706307 14.2084141,15.7121562 C13.4806729,16.2818943 12.4840552,17.0623031 10.8896703,17.7000797 C10.2247688,17.9659047 9.58699219,18.0761 8.98685156,18.0761 Z" id="Shape" fill="#212121"></path>
                <path d="M29.2251531,25.8267297 C28.8564792,25.8267297 28.4930042,25.7750792 28.1354063,25.6707609 C25.7931625,24.9901495 24.7690807,22.2811531 24.7268109,22.1662109 C24.5358057,21.6492536 24.8003875,21.076012 25.3172318,20.8850068 C25.8302333,20.6925323 26.4059615,20.956549 26.5974188,21.4730542 C26.7961094,21.998149 27.5595651,23.4298969 28.6990411,23.7568661 C29.4566198,23.973188 30.3534401,23.6930094 31.367237,22.920399 C31.8057578,22.5861964 32.4317802,22.6714141 32.7654177,23.1093698 C33.0990552,23.5473255 33.0148547,24.1733479 32.5764469,24.5075505 C31.4241995,25.3853833 30.3013375,25.8267297 29.2251531,25.8267297 Z" id="Shape" fill="#212121"></path>
                <path d="M23.5052818,30.3902849 C23.5052818,30.3902849 24.1362771,27.8666427 21.6121828,25.3424354" id="Shape" fill="#212121"></path>
                <path d="M23.506412,31.3881458 C23.4260542,31.3881458 23.3446792,31.3788781 23.2633042,31.3585344 C22.7323323,31.2255089 22.4078495,30.6895641 22.5349979,30.1587052 C22.5579411,30.0534828 22.9535141,28.0946057 20.9069328,26.0481375 C20.517237,25.6584417 20.517237,25.0269943 20.9069328,24.6374115 C21.2966286,24.2477156 21.928076,24.2477156 22.3176589,24.6374115 C25.2079406,27.5276932 24.504499,30.5071484 24.4734182,30.6328276 C24.3599453,31.0855891 23.9530703,31.3881458 23.506412,31.3881458 Z" id="Shape" fill="#212121"></path>
                <path d="M28.7267313,19.1247073 C27.2964526,19.1247073 25.5543495,18.7069823 24.3003833,17.0384557 C23.2686161,15.6654786 22.8218448,14.4810203 22.4960057,13.6160719 C22.3591375,13.2523708 22.1715229,12.7555312 22.0595193,12.6612719 L22.0590672,12.6614979 C22.0551115,12.6614979 22.0396276,12.6577682 22.0122766,12.6556208 C21.4632214,12.6105255 21.054538,12.1287177 21.0997464,11.5794365 C21.1450677,11.0303812 21.6243891,10.6177422 22.1759307,10.6669062 C23.5595318,10.7806052 23.9861854,11.913074 24.3632229,12.9119521 C24.662276,13.7060365 25.0350188,14.6945167 25.8953333,15.8393047 C27.4595417,17.9204703 30.4673651,16.8759318 30.5949656,16.8308365 C31.1133922,16.6464995 31.6842604,16.9139068 31.8707448,17.430751 C32.0573422,17.9477083 31.7923083,18.5175594 31.2763682,18.7060781 C31.1865167,18.7393062 30.1006125,19.1247073 28.7267313,19.1247073 Z" id="Shape" fill="#212121"></path>
                <path d="M18.0906797,36.700125 C17.5397031,36.700125 17.0930448,36.2534667 17.0930448,35.7024901 L17.0930448,2.26109479 C17.0930448,1.71011823 17.5397031,1.2634599 18.0906797,1.2634599 C18.6416563,1.2634599 19.0883146,1.71011823 19.0883146,2.26109479 L19.0883146,35.7023771 C19.0884276,36.2534667 18.6416563,36.700125 18.0906797,36.700125 Z" id="Shape" fill="#212121"></path>
                <path d="M12.4113828,25.3431135 C12.2211688,25.3431135 12.0289203,25.2890896 11.858937,25.1755036 C8.28487917,22.7927984 9.24872083,18.3459937 10.2578839,16.3275547 C10.5046083,15.8347839 11.1045229,15.63485 11.5966156,15.8813484 C12.0889344,16.1276208 12.2885292,16.7256141 12.0435,17.2180458 C11.9546656,17.398201 9.96922865,21.5174714 12.965637,23.5152276 C13.4240495,23.8207229 13.5480333,24.4403031 13.242312,24.8988286 C13.0502896,25.1871448 12.7339443,25.3431135 12.4113828,25.3431135 Z" id="Shape" fill="#212121"></path>
            </g>
            <g id="brain-(2)" transform="translate(33.250000, 35.003646) rotate(180.000000) translate(-33.250000, -35.003646) translate(15.166667, 15.170312)" fill-rule="nonzero">
                <path d="M18.1167875,2.26098177 C18.1167875,2.26098177 21.271538,-0.89376875 25.0572839,2.89197708 C25.0572839,2.89197708 27.580926,2.26098177 28.8430297,5.41561927 C28.8430297,5.41561927 34.5219875,5.41561927 33.8908792,14.2493276 C33.8908792,14.2493276 37.676625,19.9282854 31.9977802,23.7140312 C31.9977802,23.7140312 33.2598839,28.7618807 28.8430297,30.6545276 C28.8430297,30.6545276 30.1051333,34.4402734 26.3193875,35.0713818 C26.3193875,35.0713818 21.9025333,42.6429865 18.1167875,35.7023771 L18.0907927,35.7023771 C14.3050469,42.6428734 9.88819271,35.0713818 9.88819271,35.0713818 C6.10244688,34.4403865 7.36455052,30.6545276 7.36455052,30.6545276 C2.94769635,28.7614286 4.2098,23.7140312 4.2098,23.7140312 C-1.46915781,19.9282854 2.31670104,14.2493276 2.31670104,14.2493276 C1.68570573,5.41561927 7.36455052,5.41561927 7.36455052,5.41561927 C8.62665417,2.26086875 11.1502964,2.89197708 11.1502964,2.89197708 C14.9360422,-0.89376875 18.0907927,2.26098177 18.0907927,2.26098177 L18.1167875,2.26098177 Z" id="Shape" fill="#F97DA3"></path>
                <path d="M14.490175,39.629512 C11.9359042,39.629512 9.95860469,37.0116104 9.26883854,35.9626641 C8.110375,35.6790948 7.25638958,35.0911604 6.7264349,34.2108411 C6.09476146,33.1615557 6.10877604,31.9820703 6.22326615,31.199288 C3.21306927,29.4718776 2.82337344,26.1922391 3.11078542,24.1553776 C-1.1886401,20.8801469 -0.0699598958,16.280199 1.30075677,13.9907359 C1.11031667,10.5775068 1.8098026,7.99215521 3.38271354,6.30283281 C4.54456771,5.05519583 5.89505365,4.63328906 6.68789479,4.49088281 C7.80081094,2.28132552 9.61332604,1.78166042 10.8088604,1.84020521 C12.9574995,-0.104544271 14.9550297,-0.143084375 16.2825724,0.188970833 C17.0522443,0.381445312 17.6717115,0.713839583 18.1042422,1.00373802 C18.5368859,0.713839583 19.1560141,0.381445312 19.925799,0.188970833 C21.2528896,-0.143197396 23.2512109,-0.10443125 25.399963,1.84020521 C26.5900724,1.78245156 28.4082385,2.28132552 29.5209286,4.49088281 C30.3135438,4.63328906 31.6639167,5.05519583 32.8257708,6.30283281 C34.4002641,7.99396354 35.1002021,10.5829318 34.9073885,14.002151 C35.2274635,14.5657859 35.8661443,15.851624 36.0643828,17.4383234 C36.3010484,19.3301792 35.9538484,21.981987 33.0975859,24.1552646 C33.3849979,26.1925781 32.9951891,29.4721036 29.9851052,31.199175 C30.0995953,31.9820703 30.1131578,33.1618948 29.4819365,34.2107281 C28.9518688,35.0909344 28.0978833,35.6789818 26.9389677,35.962551 C26.2492016,37.0113844 24.2717891,39.629399 21.7180833,39.629399 C21.700113,39.629399 21.6824818,39.629399 21.6645115,39.6289469 C20.3432979,39.6099594 19.15025,38.9049354 18.1043552,37.5287937 C17.0585734,38.9050484 15.8654125,39.6099594 14.544538,39.6289469 C14.5261156,39.629512 14.5079193,39.629512 14.490175,39.629512 Z M10.6062141,3.8321974 C10.0717385,3.8321974 8.98029635,4.06287292 8.29098229,5.78610156 C8.13942135,6.16483437 7.77255573,6.41336719 7.36466354,6.41336719 C7.31629063,6.41438437 5.94455677,6.45552396 4.81434844,7.69332812 C3.6217526,8.99996198 3.10196979,11.2422953 3.3119625,14.1781245 C3.32755938,14.3987411 3.26957969,14.6185667 3.14683906,14.8026776 C2.82066094,15.298613 0.0808098958,19.7619187 4.76315,22.8836672 C5.11385365,23.1175073 5.28010729,23.5467604 5.17771042,23.9558958 C5.13657083,24.1254271 4.19115156,28.2088698 7.75763698,29.7375896 C8.2345849,29.9417052 8.47520625,30.47765 8.3111,30.9700818 C8.19468854,31.3315224 7.98740833,32.4456818 8.43971771,33.1885677 C8.72712969,33.6600906 9.2544849,33.9542839 10.052299,34.0873094 C10.3447969,34.1360214 10.600337,34.3123339 10.7498635,34.5686651 C11.2521281,35.4241198 12.8994068,37.6339031 14.4905141,37.6339031 C14.4995557,37.6339031 14.5084844,37.6339031 14.5176391,37.633451 C15.4435057,37.6188714 16.350837,36.808738 17.2147682,35.224525 C17.3897245,34.9039979 17.7255094,34.7047422 18.0906797,34.7047422 C18.455624,34.7047422 18.8179688,34.9038849 18.992925,35.224525 C19.8566302,36.808738 20.7641875,37.6188714 21.6898281,37.633451 C21.6990958,37.6339031 21.7077984,37.6339031 21.7171792,37.6339031 C23.3082865,37.6339031 24.955226,35.4241198 25.4580557,34.5676479 C25.6081474,34.3124469 25.8638005,34.1360214 26.1551682,34.0871964 C26.956599,33.9537187 27.4856495,33.6570391 27.7720443,33.1815604 C28.3030161,32.2993198 27.9011141,30.9826271 27.8967063,30.9698557 C27.7326,30.4773109 27.9732214,29.9413661 28.4501693,29.7372505 C32.0162026,28.2089828 31.0711224,24.125088 31.0286266,23.9521661 C30.9301854,23.5449521 31.0953089,23.115699 31.4442042,22.8834411 C33.4590266,21.5403016 34.3471443,19.7914172 34.0841448,17.685387 C33.8825156,16.0712234 33.0694438,14.8145448 33.0610802,14.8024516 C32.9383396,14.6183406 32.8803599,14.3985151 32.8959568,14.1778984 C33.1074188,11.2182219 32.5778031,8.96503854 31.3647505,7.66213438 C30.233525,6.44716042 28.8568182,6.41302813 28.8432557,6.41302813 C28.4355896,6.41302813 28.068724,6.16460833 27.917163,5.78598854 C27.0250896,3.55676563 25.4613333,3.82541615 25.2850208,3.86293906 C24.9528526,3.9352724 24.5918641,3.83683125 24.3520339,3.59722708 C21.3925833,0.636759375 19.0722656,2.72323698 18.8174036,2.97120469 C18.6313714,3.151925 18.3765094,3.25839063 18.1169005,3.25839063 L18.0905667,3.25839063 C17.8259849,3.25839063 17.5721401,3.15316823 17.3850906,2.96600573 C17.1346365,2.72368906 14.8136406,0.638115625 11.8555464,3.59688802 C11.6078047,3.84462969 11.2482854,3.94431406 10.9082057,3.85943542 C10.871926,3.85220208 10.763087,3.8321974 10.6062141,3.8321974 Z" id="Shape" fill="#212121"></path>
                <path d="M11.1502964,9.83258646 C11.1502964,9.83258646 11.1502964,6.67783594 7.36455052,5.41573229" id="Shape" fill="#212121"></path>
                <path d="M6.95643229,25.8267297 C5.88002188,25.8267297 4.75738594,25.3852703 3.60502552,24.5075505 C3.16684375,24.1733479 3.08230417,23.5473255 3.41628073,23.1093698 C3.75014427,22.670849 4.37616667,22.5872135 4.8146875,22.920399 C5.83063177,23.6944786 6.72926042,23.9765786 7.48943854,23.7549448 C8.85405208,23.3583547 9.57636823,21.494076 9.58348854,21.4755406 C9.77426771,20.9585833 10.3492047,20.6935495 10.8649188,20.8851198 C11.381876,21.076125 11.6461188,21.6494797 11.4551135,22.166324 C11.4127307,22.2812661 10.3885359,24.9903755 8.04651823,25.670874 C7.68914635,25.7751922 7.32544531,25.8267297 6.95643229,25.8267297 Z" id="Shape" fill="#212121"></path>
                <path d="M11.7812917,33.1782828 C11.7812917,33.1782828 11.1502964,30.6546406 13.6743906,28.1304333" id="Shape" fill="#212121"></path>
                <path d="M11.7763188,34.1703797 C11.3303385,34.1703797 10.9265151,33.8722307 10.8134943,33.4207125 C10.7824135,33.2950333 10.0786328,30.3155781 12.9692536,27.4252964 C13.3589495,27.0356005 13.990849,27.0356005 14.3799797,27.4252964 C14.7696755,27.8149922 14.7696755,28.4464396 14.3799797,28.8360224 C12.3209661,30.8948099 12.7336052,32.8653281 12.7521406,32.9480594 C12.8714906,33.4810656 12.5416958,34.0167844 12.0101589,34.1431417 C11.9317224,34.1615641 11.853512,34.1703797 11.7763188,34.1703797 Z" id="Shape" fill="#212121"></path>
                <path d="M8.98685156,18.0761 C6.15839219,18.0761 4.16210521,15.629651 4.06140365,15.5038589 C3.71691615,15.0734755 3.78698906,14.4457578 4.21703333,14.1014964 C4.64617344,13.7572349 5.27242188,13.8265167 5.6175875,14.2549786 C5.70743906,14.365513 7.73525885,16.8116229 10.1487057,15.8473292 C11.4785089,15.3153401 12.3100031,14.6643401 12.9780693,14.1410536 C13.8186052,13.4831594 14.772049,12.738013 16.0132438,13.3574802 C16.5060146,13.6039786 16.7057224,14.2032151 16.45945,14.696212 C16.2124995,15.1889828 15.613263,15.3884646 15.1207182,15.1424182 C15.0859078,15.1249 15.0698589,15.1217354 15.0698589,15.1217354 C14.9393198,15.1397057 14.5166219,15.4706307 14.2084141,15.7121562 C13.4806729,16.2818943 12.4840552,17.0623031 10.8896703,17.7000797 C10.2247688,17.9659047 9.58699219,18.0761 8.98685156,18.0761 Z" id="Shape" fill="#212121"></path>
                <path d="M29.2251531,25.8267297 C28.8564792,25.8267297 28.4930042,25.7750792 28.1354063,25.6707609 C25.7931625,24.9901495 24.7690807,22.2811531 24.7268109,22.1662109 C24.5358057,21.6492536 24.8003875,21.076012 25.3172318,20.8850068 C25.8302333,20.6925323 26.4059615,20.956549 26.5974188,21.4730542 C26.7961094,21.998149 27.5595651,23.4298969 28.6990411,23.7568661 C29.4566198,23.973188 30.3534401,23.6930094 31.367237,22.920399 C31.8057578,22.5861964 32.4317802,22.6714141 32.7654177,23.1093698 C33.0990552,23.5473255 33.0148547,24.1733479 32.5764469,24.5075505 C31.4241995,25.3853833 30.3013375,25.8267297 29.2251531,25.8267297 Z" id="Shape" fill="#212121"></path>
                <path d="M23.5052818,30.3902849 C23.5052818,30.3902849 24.1362771,27.8666427 21.6121828,25.3424354" id="Shape" fill="#212121"></path>
                <path d="M23.506412,31.3881458 C23.4260542,31.3881458 23.3446792,31.3788781 23.2633042,31.3585344 C22.7323323,31.2255089 22.4078495,30.6895641 22.5349979,30.1587052 C22.5579411,30.0534828 22.9535141,28.0946057 20.9069328,26.0481375 C20.517237,25.6584417 20.517237,25.0269943 20.9069328,24.6374115 C21.2966286,24.2477156 21.928076,24.2477156 22.3176589,24.6374115 C25.2079406,27.5276932 24.504499,30.5071484 24.4734182,30.6328276 C24.3599453,31.0855891 23.9530703,31.3881458 23.506412,31.3881458 Z" id="Shape" fill="#212121"></path>
                <path d="M28.7267313,19.1247073 C27.2964526,19.1247073 25.5543495,18.7069823 24.3003833,17.0384557 C23.2686161,15.6654786 22.8218448,14.4810203 22.4960057,13.6160719 C22.3591375,13.2523708 22.1715229,12.7555312 22.0595193,12.6612719 L22.0590672,12.6614979 C22.0551115,12.6614979 22.0396276,12.6577682 22.0122766,12.6556208 C21.4632214,12.6105255 21.054538,12.1287177 21.0997464,11.5794365 C21.1450677,11.0303812 21.6243891,10.6177422 22.1759307,10.6669062 C23.5595318,10.7806052 23.9861854,11.913074 24.3632229,12.9119521 C24.662276,13.7060365 25.0350188,14.6945167 25.8953333,15.8393047 C27.4595417,17.9204703 30.4673651,16.8759318 30.5949656,16.8308365 C31.1133922,16.6464995 31.6842604,16.9139068 31.8707448,17.430751 C32.0573422,17.9477083 31.7923083,18.5175594 31.2763682,18.7060781 C31.1865167,18.7393062 30.1006125,19.1247073 28.7267313,19.1247073 Z" id="Shape" fill="#212121"></path>
                <path d="M18.0906797,36.700125 C17.5397031,36.700125 17.0930448,36.2534667 17.0930448,35.7024901 L17.0930448,2.26109479 C17.0930448,1.71011823 17.5397031,1.2634599 18.0906797,1.2634599 C18.6416563,1.2634599 19.0883146,1.71011823 19.0883146,2.26109479 L19.0883146,35.7023771 C19.0884276,36.2534667 18.6416563,36.700125 18.0906797,36.700125 Z" id="Shape" fill="#212121"></path>
                <path d="M12.4113828,25.3431135 C12.2211688,25.3431135 12.0289203,25.2890896 11.858937,25.1755036 C8.28487917,22.7927984 9.24872083,18.3459937 10.2578839,16.3275547 C10.5046083,15.8347839 11.1045229,15.63485 11.5966156,15.8813484 C12.0889344,16.1276208 12.2885292,16.7256141 12.0435,17.2180458 C11.9546656,17.398201 9.96922865,21.5174714 12.965637,23.5152276 C13.4240495,23.8207229 13.5480333,24.4403031 13.242312,24.8988286 C13.0502896,25.1871448 12.7339443,25.3431135 12.4113828,25.3431135 Z" id="Shape" fill="#212121"></path>
            </g>
            <path d="M66.465,68.9581667 C66.4556667,69.0386667 66.444,69.1156667 66.4171667,69.195 C66.3903333,69.272 66.353,69.3385 66.3121667,69.4073333 C66.2876667,69.4493333 66.2795,69.496 66.2491667,69.5356667 C66.2351667,69.5531667 66.2141667,69.559 66.199,69.5765 C66.1185,69.6698333 66.0228333,69.741 65.9166667,69.8051667 C65.8781667,69.8273333 65.8466667,69.86 65.807,69.8786667 C65.66,69.9451667 65.5001667,69.9871667 65.3275,69.9871667 L2.3275,69.9871667 C2.30883333,69.9871667 2.29366667,69.9778333 2.27616667,69.9766667 C2.19566667,69.972 2.11983333,69.9486667 2.04166667,69.9288333 C1.97166667,69.9113333 1.9005,69.9008333 1.83633333,69.8705 C1.7745,69.8413333 1.72316667,69.7958333 1.66716667,69.7561667 C1.59833333,69.7083333 1.5295,69.664 1.47233333,69.6021667 C1.46183333,69.5893333 1.4455,69.5846667 1.435,69.5718333 C1.39883333,69.5286667 1.38716667,69.4773333 1.358,69.4318333 C1.31366667,69.3618333 1.26933333,69.2953333 1.24016667,69.216 C1.211,69.1366667 1.20283333,69.0573333 1.19116667,68.9756667 C1.18416667,68.922 1.15966667,68.8753333 1.15966667,68.8193333 L1.15966667,28.6358333 C1.15966667,28.3208333 1.28683333,28.021 1.51083333,27.8016667 L27.2171667,2.67283333 C30.8606667,-0.891333333 36.7896667,-0.891333333 40.4355,2.67283333 L66.1418333,27.8016667 C66.367,28.021 66.493,28.3208333 66.493,28.6358333 L66.493,68.8193333 C66.493,68.8683333 66.4708333,68.9103333 66.465,68.9581667 Z M28.8493333,4.34116667 L3.84183333,28.7851667 L29.3521667,46.5313333 C32.1533333,45.3075 35.3873333,45.3331667 38.164,46.627 L63.8108333,28.7863333 L38.8045,4.34116667 C36.0616667,1.65666667 31.5956667,1.65666667 28.8493333,4.34116667 Z" id="Combined-Shape" fill="#FFFFFF"></path>
            <g id="envelope-(1)" fill="#212121" fill-rule="nonzero">
                <path d="M66.465,68.9581667 C66.4708333,68.9103333 66.493,68.8683333 66.493,68.8193333 L66.493,28.6358333 C66.493,28.3208333 66.367,28.021 66.1418333,27.8016667 L40.4355,2.67283333 C36.7896667,-0.891333333 30.8606667,-0.891333333 27.2171667,2.67283333 L1.51083333,27.8016667 C1.28683333,28.021 1.15966667,28.3208333 1.15966667,28.6358333 L1.15966667,68.8193333 C1.15966667,68.8753333 1.18416667,68.922 1.19116667,68.9756667 C1.20283333,69.0573333 1.211,69.1366667 1.24016667,69.216 C1.26933333,69.2953333 1.31366667,69.3618333 1.358,69.4318333 C1.38716667,69.4773333 1.39883333,69.5286667 1.435,69.5718333 C1.4455,69.5846667 1.46183333,69.5893333 1.47233333,69.6021667 C1.5295,69.664 1.59833333,69.7083333 1.66716667,69.7561667 C1.72316667,69.7958333 1.7745,69.8413333 1.83633333,69.8705 C1.9005,69.9008333 1.97166667,69.9113333 2.04166667,69.9288333 C2.11983333,69.9486667 2.19566667,69.972 2.27616667,69.9766667 C2.29366667,69.9778333 2.30883333,69.9871667 2.3275,69.9871667 L65.3275,69.9871667 C65.5001667,69.9871667 65.66,69.9451667 65.807,69.8786667 C65.8466667,69.86 65.8781667,69.8273333 65.9166667,69.8051667 C66.0228333,69.741 66.1185,69.6698333 66.199,69.5765 C66.2141667,69.559 66.2351667,69.5531667 66.2491667,69.5356667 C66.2795,69.496 66.2876667,69.4493333 66.3121667,69.4073333 C66.353,69.3385 66.3903333,69.272 66.4171667,69.195 C66.444,69.1156667 66.4556667,69.0386667 66.465,68.9581667 Z M3.493,31.3868333 L27.1145,47.8193333 C19.8625,52.8243333 8.0815,62.51 3.493,66.325 L3.493,31.3868333 Z M28.9671667,49.3756667 C31.78,47.4658333 35.5518333,47.4775 38.2981667,49.364 L61.9138333,67.6526667 L5.54633333,67.6526667 C10.5758333,63.4806667 22.1223333,54.0225 28.9671667,49.3756667 Z M40.313,47.9756667 L64.1596667,31.3868333 L64.1596667,66.4405 L40.313,47.9756667 Z M28.8493333,4.34116667 C31.5956667,1.65666667 36.0616667,1.65666667 38.8045,4.34116667 L63.8108333,28.7863333 L38.164,46.627 C35.3873333,45.3331667 32.1533333,45.3075 29.3521667,46.5313333 L3.84183333,28.7851667 L28.8493333,4.34116667 Z" id="Shape"></path>
            </g>
        </g>
        <text id="Know-Your-Users" font-family="Foco-Bold, Foco" font-size="40" font-weight="bold" fill="#212121">
            <tspan x="86" y="48">Know Your Users</tspan>
        </text>
    </g>
</svg>